<mxfile host="65bd71144e">
    <diagram id="ZbDjQzKarBm5VQ23UCQl" name="PÃ¡gina-1">
        <mxGraphModel dx="1261" dy="303" grid="1" gridSize="10" guides="1" tooltips="1" connect="1" arrows="1" fold="1" page="1" pageScale="1" pageWidth="827" pageHeight="1169" math="0" shadow="0">
            <root>
                <mxCell id="0"/>
                <mxCell id="1" parent="0"/>
                <mxCell id="2" value="inicio" style="ellipse;whiteSpace=wrap;html=1;fillColor=#60a917;fontColor=#ffffff;strokeColor=#2D7600;" vertex="1" parent="1">
                    <mxGeometry x="170" y="10" width="100" height="80" as="geometry"/>
                </mxCell>
                <mxCell id="4" value="" style="endArrow=classic;html=1;fontColor=#000000;exitX=0.5;exitY=1;exitDx=0;exitDy=0;" edge="1" parent="1" source="2">
                    <mxGeometry width="50" height="50" relative="1" as="geometry">
                        <mxPoint x="200" y="190" as="sourcePoint"/>
                        <mxPoint x="220" y="120" as="targetPoint"/>
                    </mxGeometry>
                </mxCell>
                <mxCell id="5" value="x,y" style="shape=parallelogram;perimeter=parallelogramPerimeter;whiteSpace=wrap;html=1;fixedSize=1;fontColor=#000000;fillColor=#fa6800;strokeColor=#C73500;" vertex="1" parent="1">
                    <mxGeometry x="165" y="120" width="110" height="60" as="geometry"/>
                </mxCell>
                <mxCell id="6" value="" style="endArrow=classic;html=1;fontColor=#000000;exitX=0.5;exitY=1;exitDx=0;exitDy=0;" edge="1" parent="1" source="5">
                    <mxGeometry width="50" height="50" relative="1" as="geometry">
                        <mxPoint x="220" y="230" as="sourcePoint"/>
                        <mxPoint x="220" y="220" as="targetPoint"/>
                    </mxGeometry>
                </mxCell>
                <mxCell id="7" value="x==0" style="rhombus;whiteSpace=wrap;html=1;fontColor=#000000;fillColor=#e3c800;strokeColor=#B09500;" vertex="1" parent="1">
                    <mxGeometry x="181.25" y="220" width="88.75" height="90" as="geometry"/>
                </mxCell>
                <mxCell id="10" value="" style="endArrow=classic;html=1;fontColor=#000000;exitX=1;exitY=0.5;exitDx=0;exitDy=0;" edge="1" parent="1" source="7">
                    <mxGeometry width="50" height="50" relative="1" as="geometry">
                        <mxPoint x="280" y="270" as="sourcePoint"/>
                        <mxPoint x="460" y="380" as="targetPoint"/>
                        <Array as="points">
                            <mxPoint x="460" y="265"/>
                        </Array>
                    </mxGeometry>
                </mxCell>
                <mxCell id="11" value="&lt;font&gt;true&lt;/font&gt;" style="text;html=1;align=center;verticalAlign=middle;whiteSpace=wrap;rounded=0;fontColor=#18d82e;" vertex="1" parent="1">
                    <mxGeometry x="270" y="240" width="60" height="20" as="geometry"/>
                </mxCell>
                <mxCell id="15" value="" style="endArrow=classic;html=1;fontColor=#18d82e;exitX=0;exitY=0.5;exitDx=0;exitDy=0;entryX=0.5;entryY=0;entryDx=0;entryDy=0;" edge="1" parent="1" target="17">
                    <mxGeometry width="50" height="50" relative="1" as="geometry">
                        <mxPoint x="181.25" y="265" as="sourcePoint"/>
                        <mxPoint y="370" as="targetPoint"/>
                        <Array as="points">
                            <mxPoint x="5" y="265"/>
                        </Array>
                    </mxGeometry>
                </mxCell>
                <mxCell id="16" value="false" style="text;html=1;strokeColor=none;fillColor=none;align=center;verticalAlign=middle;whiteSpace=wrap;rounded=0;fontColor=#d84818;" vertex="1" parent="1">
                    <mxGeometry x="120" y="235" width="60" height="30" as="geometry"/>
                </mxCell>
                <mxCell id="21" style="edgeStyle=none;html=1;exitX=1;exitY=0.5;exitDx=0;exitDy=0;fontColor=#d84818;" edge="1" parent="1" source="17">
                    <mxGeometry relative="1" as="geometry">
                        <mxPoint x="160" y="480" as="targetPoint"/>
                        <Array as="points">
                            <mxPoint x="160" y="425"/>
                        </Array>
                    </mxGeometry>
                </mxCell>
                <mxCell id="24" style="edgeStyle=none;html=1;exitX=0;exitY=0.5;exitDx=0;exitDy=0;fontColor=#d84818;" edge="1" parent="1" source="17">
                    <mxGeometry relative="1" as="geometry">
                        <mxPoint x="-160" y="480" as="targetPoint"/>
                        <Array as="points">
                            <mxPoint x="-160" y="425"/>
                        </Array>
                    </mxGeometry>
                </mxCell>
                <mxCell id="17" value="y==0" style="rhombus;whiteSpace=wrap;html=1;fontColor=#000000;fillColor=#e3c800;strokeColor=#B09500;" vertex="1" parent="1">
                    <mxGeometry x="-40" y="380" width="89" height="90" as="geometry"/>
                </mxCell>
                <mxCell id="34" style="edgeStyle=none;html=1;exitX=1;exitY=0.5;exitDx=0;exitDy=0;fontColor=#d84818;" edge="1" parent="1">
                    <mxGeometry relative="1" as="geometry">
                        <mxPoint x="639" y="480" as="targetPoint"/>
                        <mxPoint x="501" y="425" as="sourcePoint"/>
                        <Array as="points">
                            <mxPoint x="639" y="425"/>
                        </Array>
                    </mxGeometry>
                </mxCell>
                <mxCell id="31" value="y==0" style="rhombus;whiteSpace=wrap;html=1;fontColor=#000000;fillColor=#e3c800;strokeColor=#B09500;" vertex="1" parent="1">
                    <mxGeometry x="412" y="380" width="90" height="90" as="geometry"/>
                </mxCell>
                <mxCell id="32" value="" style="endArrow=classic;html=1;fontColor=#d84818;" edge="1" parent="1">
                    <mxGeometry width="50" height="50" relative="1" as="geometry">
                        <mxPoint x="412" y="425" as="sourcePoint"/>
                        <mxPoint x="282" y="480" as="targetPoint"/>
                        <Array as="points">
                            <mxPoint x="282" y="425"/>
                        </Array>
                    </mxGeometry>
                </mxCell>
                <mxCell id="35" value="eje x" style="shape=document;whiteSpace=wrap;html=1;boundedLbl=1;fontColor=#ffffff;fillColor=#e51400;strokeColor=#B20000;" vertex="1" parent="1">
                    <mxGeometry x="100" y="480" width="90" height="60" as="geometry"/>
                </mxCell>
                <mxCell id="36" value="eje y" style="shape=document;whiteSpace=wrap;html=1;boundedLbl=1;fontColor=#ffffff;fillColor=#e51400;strokeColor=#B20000;" vertex="1" parent="1">
                    <mxGeometry x="236" y="480" width="94" height="60" as="geometry"/>
                </mxCell>
                <mxCell id="39" value="x&amp;gt;0" style="rhombus;whiteSpace=wrap;html=1;fontColor=#000000;fillColor=#e3c800;strokeColor=#B09500;" vertex="1" parent="1">
                    <mxGeometry x="-210" y="480" width="100" height="100" as="geometry"/>
                </mxCell>
                <mxCell id="42" value="ORIGEN" style="shape=document;whiteSpace=wrap;html=1;boundedLbl=1;fontColor=#ffffff;fillColor=#e51400;strokeColor=#B20000;" vertex="1" parent="1">
                    <mxGeometry x="580" y="480" width="100" height="60" as="geometry"/>
                </mxCell>
                <mxCell id="43" value="" style="endArrow=classic;html=1;fontColor=#d84818;exitX=0.59;exitY=0.836;exitDx=0;exitDy=0;exitPerimeter=0;entryX=0.475;entryY=0.947;entryDx=0;entryDy=0;entryPerimeter=0;" edge="1" parent="1" source="42" target="36">
                    <mxGeometry width="50" height="50" relative="1" as="geometry">
                        <mxPoint x="450" y="600" as="sourcePoint"/>
                        <mxPoint x="270" y="600" as="targetPoint"/>
                        <Array as="points">
                            <mxPoint x="640" y="600"/>
                            <mxPoint x="280" y="600"/>
                        </Array>
                    </mxGeometry>
                </mxCell>
                <mxCell id="44" value="" style="endArrow=classic;html=1;fontColor=#d84818;" edge="1" parent="1">
                    <mxGeometry width="50" height="50" relative="1" as="geometry">
                        <mxPoint x="467" y="600" as="sourcePoint"/>
                        <mxPoint x="-520" y="800" as="targetPoint"/>
                        <Array as="points">
                            <mxPoint x="467" y="880"/>
                            <mxPoint x="-520" y="880"/>
                        </Array>
                    </mxGeometry>
                </mxCell>
                <mxCell id="45" value="" style="endArrow=classic;html=1;fontColor=#d84818;exitX=0.674;exitY=0.781;exitDx=0;exitDy=0;exitPerimeter=0;" edge="1" parent="1" source="35">
                    <mxGeometry width="50" height="50" relative="1" as="geometry">
                        <mxPoint x="130" y="590" as="sourcePoint"/>
                        <mxPoint x="160" y="882" as="targetPoint"/>
                    </mxGeometry>
                </mxCell>
                <mxCell id="46" value="" style="endArrow=classic;html=1;fontColor=#d84818;exitX=1;exitY=0.5;exitDx=0;exitDy=0;" edge="1" parent="1" source="39">
                    <mxGeometry width="50" height="50" relative="1" as="geometry">
                        <mxPoint x="-110" y="560" as="sourcePoint"/>
                        <mxPoint y="600" as="targetPoint"/>
                        <Array as="points">
                            <mxPoint y="530"/>
                        </Array>
                    </mxGeometry>
                </mxCell>
                <mxCell id="47" value="Y&amp;gt;0" style="rhombus;whiteSpace=wrap;html=1;fontColor=#000000;fillColor=#e3c800;strokeColor=#B09500;" vertex="1" parent="1">
                    <mxGeometry x="-40" y="610" width="80" height="80" as="geometry"/>
                </mxCell>
                <mxCell id="48" value="" style="endArrow=classic;html=1;fontColor=#d84818;exitX=1;exitY=0.5;exitDx=0;exitDy=0;" edge="1" parent="1" source="47">
                    <mxGeometry width="50" height="50" relative="1" as="geometry">
                        <mxPoint y="670" as="sourcePoint"/>
                        <mxPoint x="120" y="720" as="targetPoint"/>
                        <Array as="points">
                            <mxPoint x="120" y="650"/>
                        </Array>
                    </mxGeometry>
                </mxCell>
                <mxCell id="50" value="" style="endArrow=classic;html=1;fontColor=#d84818;exitX=0;exitY=0.5;exitDx=0;exitDy=0;" edge="1" parent="1" source="47">
                    <mxGeometry width="50" height="50" relative="1" as="geometry">
                        <mxPoint x="-100" y="690" as="sourcePoint"/>
                        <mxPoint x="-120" y="720" as="targetPoint"/>
                        <Array as="points">
                            <mxPoint x="-120" y="650"/>
                        </Array>
                    </mxGeometry>
                </mxCell>
                <mxCell id="51" value="CUADRANTE 4" style="shape=document;whiteSpace=wrap;html=1;boundedLbl=1;fontColor=#ffffff;fillColor=#e51400;strokeColor=#B20000;" vertex="1" parent="1">
                    <mxGeometry x="-170" y="720" width="120" height="60" as="geometry"/>
                </mxCell>
                <mxCell id="52" value="CUADRANTE 1" style="shape=document;whiteSpace=wrap;html=1;boundedLbl=1;fontColor=#ffffff;fillColor=#e51400;strokeColor=#B20000;" vertex="1" parent="1">
                    <mxGeometry x="40" y="720" width="110" height="60" as="geometry"/>
                </mxCell>
                <mxCell id="53" value="" style="endArrow=classic;html=1;fontColor=#d84818;exitX=0;exitY=0.5;exitDx=0;exitDy=0;entryX=0.5;entryY=0;entryDx=0;entryDy=0;" edge="1" parent="1" source="39" target="55">
                    <mxGeometry width="50" height="50" relative="1" as="geometry">
                        <mxPoint x="-367" y="530" as="sourcePoint"/>
                        <mxPoint x="-480" y="600" as="targetPoint"/>
                        <Array as="points">
                            <mxPoint x="-480" y="530"/>
                        </Array>
                    </mxGeometry>
                </mxCell>
                <mxCell id="58" style="edgeStyle=none;html=1;exitX=1;exitY=0.5;exitDx=0;exitDy=0;fontColor=#d84818;" edge="1" parent="1" source="55">
                    <mxGeometry relative="1" as="geometry">
                        <mxPoint x="-320" y="720" as="targetPoint"/>
                        <Array as="points">
                            <mxPoint x="-320" y="655"/>
                        </Array>
                    </mxGeometry>
                </mxCell>
                <mxCell id="62" style="edgeStyle=none;html=1;exitX=0;exitY=0.5;exitDx=0;exitDy=0;fontColor=#d84818;" edge="1" parent="1" source="55">
                    <mxGeometry relative="1" as="geometry">
                        <mxPoint x="-640" y="720" as="targetPoint"/>
                        <Array as="points">
                            <mxPoint x="-640" y="655"/>
                        </Array>
                    </mxGeometry>
                </mxCell>
                <mxCell id="55" value="X&amp;lt;0" style="rhombus;whiteSpace=wrap;html=1;fontColor=#000000;fillColor=#e3c800;strokeColor=#B09500;" vertex="1" parent="1">
                    <mxGeometry x="-520" y="610" width="90" height="90" as="geometry"/>
                </mxCell>
                <mxCell id="67" style="edgeStyle=none;html=1;fontColor=#d84818;exitX=0.457;exitY=0.864;exitDx=0;exitDy=0;exitPerimeter=0;entryX=0.59;entryY=0.781;entryDx=0;entryDy=0;entryPerimeter=0;" edge="1" parent="1">
                    <mxGeometry relative="1" as="geometry">
                        <mxPoint x="-314.1" y="766.8599999999999" as="targetPoint"/>
                        <mxPoint x="-643.3" y="771.8399999999999" as="sourcePoint"/>
                        <Array as="points">
                            <mxPoint x="-643" y="800"/>
                            <mxPoint x="-499" y="800"/>
                            <mxPoint x="-320" y="800"/>
                        </Array>
                    </mxGeometry>
                </mxCell>
                <mxCell id="63" value="CUADRANTE 3" style="shape=document;whiteSpace=wrap;html=1;boundedLbl=1;fontColor=#ffffff;fillColor=#e51400;strokeColor=#B20000;" vertex="1" parent="1">
                    <mxGeometry x="-690" y="720" width="100" height="60" as="geometry"/>
                </mxCell>
                <mxCell id="64" value="CUADRANTE 2" style="shape=document;whiteSpace=wrap;html=1;boundedLbl=1;fontColor=#ffffff;fillColor=#e51400;strokeColor=#B20000;" vertex="1" parent="1">
                    <mxGeometry x="-380" y="720" width="110" height="60" as="geometry"/>
                </mxCell>
                <mxCell id="68" value="" style="endArrow=classic;html=1;fontColor=#d84818;exitX=0.408;exitY=0.975;exitDx=0;exitDy=0;exitPerimeter=0;entryX=0.749;entryY=0.711;entryDx=0;entryDy=0;entryPerimeter=0;" edge="1" parent="1" source="51" target="52">
                    <mxGeometry width="50" height="50" relative="1" as="geometry">
                        <mxPoint x="-160" y="810" as="sourcePoint"/>
                        <mxPoint x="130" y="890" as="targetPoint"/>
                        <Array as="points">
                            <mxPoint x="-120" y="800"/>
                            <mxPoint y="800"/>
                            <mxPoint x="122" y="800"/>
                        </Array>
                    </mxGeometry>
                </mxCell>
                <mxCell id="69" value="" style="endArrow=classic;html=1;fontColor=#d84818;" edge="1" parent="1">
                    <mxGeometry width="50" height="50" relative="1" as="geometry">
                        <mxPoint y="800" as="sourcePoint"/>
                        <mxPoint y="880" as="targetPoint"/>
                    </mxGeometry>
                </mxCell>
                <mxCell id="70" value="" style="endArrow=classic;html=1;fontColor=#d84818;" edge="1" parent="1">
                    <mxGeometry width="50" height="50" relative="1" as="geometry">
                        <mxPoint x="40" y="880" as="sourcePoint"/>
                        <mxPoint x="40" y="960" as="targetPoint"/>
                    </mxGeometry>
                </mxCell>
                <mxCell id="71" value="fin" style="ellipse;whiteSpace=wrap;html=1;fontColor=#ffffff;fillColor=#008a00;strokeColor=#005700;" vertex="1" parent="1">
                    <mxGeometry x="-10" y="960" width="110" height="70" as="geometry"/>
                </mxCell>
                <mxCell id="72" value="&lt;font&gt;true&lt;/font&gt;" style="text;html=1;align=center;verticalAlign=middle;whiteSpace=wrap;rounded=0;fontColor=#18d82e;" vertex="1" parent="1">
                    <mxGeometry x="500" y="400" width="60" height="20" as="geometry"/>
                </mxCell>
                <mxCell id="73" value="&lt;font&gt;true&lt;/font&gt;" style="text;html=1;align=center;verticalAlign=middle;whiteSpace=wrap;rounded=0;fontColor=#18d82e;" vertex="1" parent="1">
                    <mxGeometry x="49" y="400" width="60" height="20" as="geometry"/>
                </mxCell>
                <mxCell id="74" value="&lt;font&gt;true&lt;/font&gt;" style="text;html=1;align=center;verticalAlign=middle;whiteSpace=wrap;rounded=0;fontColor=#18d82e;" vertex="1" parent="1">
                    <mxGeometry x="-120" y="510" width="60" height="20" as="geometry"/>
                </mxCell>
                <mxCell id="75" value="&lt;font&gt;true&lt;/font&gt;" style="text;html=1;align=center;verticalAlign=middle;whiteSpace=wrap;rounded=0;fontColor=#18d82e;" vertex="1" parent="1">
                    <mxGeometry x="40" y="630" width="60" height="20" as="geometry"/>
                </mxCell>
                <mxCell id="76" value="&lt;font&gt;true&lt;/font&gt;" style="text;html=1;align=center;verticalAlign=middle;whiteSpace=wrap;rounded=0;fontColor=#18d82e;" vertex="1" parent="1">
                    <mxGeometry x="-430" y="630" width="60" height="20" as="geometry"/>
                </mxCell>
                <mxCell id="77" value="false" style="text;html=1;strokeColor=none;fillColor=none;align=center;verticalAlign=middle;whiteSpace=wrap;rounded=0;fontColor=#d84818;" vertex="1" parent="1">
                    <mxGeometry x="352" y="395" width="60" height="30" as="geometry"/>
                </mxCell>
                <mxCell id="78" value="false" style="text;html=1;strokeColor=none;fillColor=none;align=center;verticalAlign=middle;whiteSpace=wrap;rounded=0;fontColor=#d84818;" vertex="1" parent="1">
                    <mxGeometry x="-80" y="395" width="60" height="30" as="geometry"/>
                </mxCell>
                <mxCell id="79" value="false" style="text;html=1;strokeColor=none;fillColor=none;align=center;verticalAlign=middle;whiteSpace=wrap;rounded=0;fontColor=#d84818;" vertex="1" parent="1">
                    <mxGeometry x="-270" y="510" width="60" height="30" as="geometry"/>
                </mxCell>
                <mxCell id="80" value="false" style="text;html=1;strokeColor=none;fillColor=none;align=center;verticalAlign=middle;whiteSpace=wrap;rounded=0;fontColor=#d84818;" vertex="1" parent="1">
                    <mxGeometry x="-80" y="625" width="60" height="30" as="geometry"/>
                </mxCell>
                <mxCell id="82" value="false" style="text;html=1;strokeColor=none;fillColor=none;align=center;verticalAlign=middle;whiteSpace=wrap;rounded=0;fontColor=#d84818;" vertex="1" parent="1">
                    <mxGeometry x="-570" y="625" width="60" height="30" as="geometry"/>
                </mxCell>
            </root>
        </mxGraphModel>
    </diagram>
</mxfile>